<svg xmlns="http://www.w3.org/2000/svg" xmlns:xlink="http://www.w3.org/1999/xlink" width="500" height="500" viewBox="0 0 500 500">
  <defs>
    <circle id="avatar---geral-a" cx="250" cy="250" r="250"/>
    <polygon id="avatar---geral-c" points=".512 .524 159.511 .524 159.511 114.704 .512 114.704"/>
  </defs>
  <g fill="none" fill-rule="evenodd">
    <mask id="avatar---geral-b" fill="#fff">
      <use xlink:href="#avatar---geral-a"/>
    </mask>
    <use fill="#66788A" xlink:href="#avatar---geral-a"/>
    <g mask="url(#avatar---geral-b)">
      <g transform="translate(66 71)">
        <path fill="#F4B073" d="M222.405411,258.058522 L222.892958,218.581767 L185.796584,221.707919 L147.156588,218.061674 L143.526709,257.427955 C143.526709,257.427955 158.016877,275.831171 185.412052,276.183492 L185.412052,276.211454 C185.543892,276.211454 185.664745,276.200269 185.796584,276.194677 C185.933917,276.200269 186.05477,276.211454 186.18661,276.211454 L186.18661,276.183492 C213.576292,275.831171 225.991189,258.058522 225.991189,258.058522"/>
        <path fill="#FBD099" d="M182.77618,133.466192 C160.007761,135.006081 138.250789,131.414821 125.460886,127.834443 C116.118602,125.211735 107.885646,119.487483 104.095441,116.570944 C104.100879,116.690653 104.100879,116.799479 104.106317,116.924629 C100.805521,115.689453 96.6129131,115.820044 93.3719344,121.68577 C87.9993053,131.414821 93.3719344,150.361441 100.539065,156.248931 C103.850736,158.975024 106.917703,160.906687 109.28862,162.223483 C112.877623,179.815218 118.701597,196.329575 128.130887,206.434076 C152.258777,232.302034 174.255017,237.824957 180.628216,238.929542 C181.819113,239.136312 182.526038,239.207048 182.526038,239.207048 C182.526038,239.207048 184.228095,238.989396 184.684878,238.929542 L185.022026,133.313836 C184.848014,133.324719 182.944755,133.45531 182.77618,133.466192"/>
        <path fill="#FBD099" d="M274.018796,122.262041 C270.222106,115.399929 265.119791,116.35997 261.661798,118.19823 C261.661798,118.170957 261.661798,118.149137 261.667261,118.127318 C261.978644,111.788865 262.10429,106.061347 262.147993,101.141136 C244.830714,102.543015 205.252265,105.652239 183.007483,106.699556 C175.015313,107.081391 169.251992,107.190486 167.585818,106.8632 C160.746313,105.49405 113.95142,99.4937931 103.085784,97.7973568 C103.069395,102.864847 103.145875,109.19239 103.451796,116.35997 C107.259412,119.283731 117.513207,127.460445 126.745448,130.575124 C148.662458,137.960895 167.372767,140.491912 183.007483,140.486458 L183.007483,239.207048 C187.361386,238.639751 211.490856,234.330476 237.55418,206.4511 C246.666237,196.697955 252.445947,180.922734 256.100603,163.920188 C258.564354,162.687408 262.492153,160.461858 266.824205,156.910797 C274.018796,151.008726 279.416106,132.015186 274.018796,122.262041"/>
        <path fill="#F4B073" d="M104.714353 130.140469L107.048458 149.339207C107.048458 149.339207 100.432401 145.791128 99.2625897 136.8455 98.5618064 131.475888 100.432401 128.03956 104.714353 130.140469M262.690419 127.497297L260.352423 146.696035C260.352423 146.696035 266.969393 143.142369 268.138391 134.202328 268.838687 128.832716 266.969393 125.396388 262.690419 127.497297"/>
        <path fill="#82491A" d="M105.516497 134.79994C110.053043 134.960479 117.993347 124.492227 117.669693 112.346619 117.34604 100.256369 122.907489 102.647847 122.907489 102.647847L100.440529 101.762115C100.440529 101.762115 100.494471 127.813724 105.516497 134.79994M262.086705 136.121622C257.572678 136.280037 248.061554 125.513215 248.383601 113.533691 248.705648 101.597868 243.171806 103.95772 243.171806 103.95772L265.527241 103.0837C265.527241 103.0837 266.600731 132.396115 262.086705 136.121622"/>
        <g transform="translate(104.405)">
          <mask id="avatar---geral-d" fill="#fff">
            <use xlink:href="#avatar---geral-c"/>
          </mask>
          <path fill="#FBCB43" d="M118.293207,74.7127766 C106.855104,66.9252618 101.284742,51.530029 97.7973568,0.885736352 C95.8726573,0.777228574 92.7999777,0.939990241 90.701294,0.885736352 C87.8631777,0.815206296 73.0573214,1.21307813 69.6918156,1.3215859 C67.0439945,1.41381751 63.1906705,1.57595878 60.7929515,1.74957123 C56.5857981,67.8694441 47.0808912,69.9672619 34.0864507,78.3549131 C18.6834172,88.299651 1.22386969,78.3549131 1.22386969,78.3549131 L0.511622115,77.7798219 C0.772598326,83.8725336 1.42503885,87.8005152 1.42503885,87.8005152 C1.42503885,87.8005152 4.87753665,95.0759617 23.6841349,106.952138 C40.3703014,117.482818 73.8296265,114.37407 81.2565745,113.619941 C88.6835226,114.37407 119.630952,117.672706 136.317118,107.142027 C155.118279,95.2658503 158.570777,87.9958292 158.570777,87.9958292 C158.570777,87.9958292 159.277588,83.7151974 159.511379,77.1721784 L158.059699,78.3549131 C158.059699,78.3549131 144.804202,77.1408676 118.293207,74.7127766 Z" mask="url(#avatar---geral-d)"/>
        </g>
        <path fill="#F5B400" d="M251.948005,26.6431146 C239.961235,9.38695493 229.788854,1.63873027 202.202643,0 C203.775471,67.4628957 216.116529,70.3334233 228.956812,78.8460221 C244.164388,88.925863 262.807492,78.5875646 262.807492,78.5875646 L264.240751,77.3942611 C264.697032,64.6088655 263.414077,43.1568965 251.948005,26.6431146"/>
        <path fill="#F5B400" d="M263.531143,83.2599119 C258.917346,90.2790537 253.916798,97.6906043 240.462162,101.592584 C208.672181,110.805899 160.055734,110.805899 128.260305,101.592584 C114.805669,97.6906043 109.805121,90.2790537 105.196772,83.2599119 C102.500397,83.6467937 96.4757709,83.5196754 96.4757709,83.5196754 L96.7372375,110.175834 L119.419466,114.072287 C119.419466,114.072287 129.017469,127.535774 171.778153,129.420442 C175.335188,129.575194 192.760848,129.54756 197.036917,129.287796 C237.716763,126.850441 249.308449,114.072287 249.308449,114.072287 L271.990677,110.175834 L272.246696,83.5196754 C272.246696,83.5196754 266.22207,83.6467937 263.531143,83.2599119"/>
        <path fill="#F5B400" d="M152.161772,3.01405578 C152.427822,12.215138 152.476689,29.7572851 149.718453,43.7270527 C148.171017,51.6050314 143.794761,49.3116521 142.545953,45.711708 C139.109017,35.8270223 137.262954,16.6861252 137.089207,7.8929999 C128.358412,12.1600087 121.962345,18.5494959 115.604285,27.6292936 C103.756902,44.5264278 102.649263,66.6112302 103.192223,79.3130237 L103.903501,79.8973944 C103.903501,79.8973944 122.760496,90.2617051 138.137119,80.1565022 C151.119289,71.6335105 163.585647,68.7502475 165.198238,1.3215859 C160.393043,1.69095229 156.081942,2.24775835 152.161772,3.01405578"/>
        <path fill="#FBCB43" d="M152.243266 4.30977063C146.185621 5.41881537 141.349282 6.98715032 136.810298 9.070647 136.997297 17.6576682 138.893081 36.563694 142.485735 46.2166903 143.789064 49.7322544 149.01056 51.422182 150.631221 43.7234734 153.504211 30.0811463 152.520932 13.2951865 152.243266 4.30977063zM218.091246 43.7234734C215.218255 30.0811463 215.263589 12.9501736 215.541254 3.96475771 221.5989 5.07380245 226.738549 6.64584646 231.277533 8.72934314 231.084867 17.3163643 229.163874 36.0086136 225.576886 45.6616098 224.273557 49.177174 219.711907 51.422182 218.091246 43.7234734"/>
        <path fill="#CCC" d="M136.123348,248.649605 C133.747431,249.801197 130.158919,252.034235 127.04189,253.573329 C116.878852,258.589028 103.758472,265.743741 89.6828004,273.395548 L61.1173063,289.801634 C57.6569689,291.919253 54.3056185,294.042329 51.123198,296.138116 C39.9247832,303.517034 30.7644254,310.595775 26.0670855,316.479261 C12.0459072,334.026023 5.13613109,372.121325 1.3215859,416.634976 L51.123198,416.634976 L51.123198,459.778724 L51.123198,491.368353 L51.123198,574.33752 C92.0805145,590.83093 136.765187,600 183.613251,600 L183.700441,600 L183.700441,491.368353 L183.700441,459.778724 L183.700441,415.865429 L183.700441,384.2758 L183.700441,352.5661 L183.700441,278.323923 C183.564207,278.334839 183.444321,278.378501 183.302638,278.389417 C175.548213,274.967389 140.335696,255.27535 136.123348,248.649605 Z"/>
        <path fill="#999" d="M183.700441,270.358495 C159.922717,270.136034 144.797834,244.493392 144.797834,244.493392 C144.797834,244.493392 141.518521,246.039764 136.123348,248.649605 C140.723044,255.898562 156.297074,281.378428 183.700441,281.497797 L183.700441,270.358495 Z"/>
        <path fill="#FBD099" d="M5.60170769,430.374289 C5.60170769,440.863603 3.28242533,532.580408 4.16517819,551.042702 C18.8758982,559.610353 43.3078654,571.333056 60.6832928,577.53304 L60.7929515,428.193833 L5.60170769,430.374289 Z"/>
        <path fill="#B2B2B2" d="M60.7929515,416.299559 L1.39448309,416.299559 C0.879012687,422.79245 0.412376322,429.408179 0,436.123348 L60.7929515,436.123348 L60.7929515,416.299559 Z"/>
        <path fill="#B2B2B2" d="M76.6519824,450.533221 L69.3386221,360.003247 L38.3259912,309.251101 C38.3259912,309.251101 49.4011405,357.935386 59.3698813,371.417188 C60.2550081,395.976428 59.8124447,463.569971 59.8124447,463.569971 C59.8124447,463.569971 66.4619599,467.054398 76.6519824,450.533221"/>
        <path fill="#CCC" d="M231.277533,248.649605 C233.65345,249.801197 237.149954,251.897824 240.266982,253.436917 C250.430021,258.452617 263.642409,265.743741 277.718081,273.395548 L306.283575,289.801634 C309.743912,291.919253 313.095263,294.042329 316.277683,296.138116 C327.476098,303.517034 336.636456,310.595775 341.333796,316.479261 C355.354974,334.026023 362.26475,372.121325 366.079295,416.634976 L316.277683,416.634976 L316.277683,459.778724 L316.277683,491.368353 L316.277683,574.33752 C275.320367,590.83093 230.630245,600 183.78763,600 L183.700441,600 L183.700441,491.368353 L172.789125,459.778724 L176.017752,416.299559 L172.789125,383.696904 L172.789125,352.207524 L182.895998,278.974034 C183.032232,278.98495 184.306307,278.313008 184.44799,278.323923 C192.202415,274.901896 227.065185,255.27535 231.277533,248.649605 Z"/>
        <path fill="#999" d="M183.700441,270.358495 C207.478164,270.136034 222.603047,244.493392 222.603047,244.493392 C222.603047,244.493392 225.88236,246.039764 231.277533,248.649605 C228.447425,253.109754 221.190801,264.830179 209.39919,272.940071 C202.02622,278.010963 192.687119,281.451874 182.144536,281.497797 L183.700441,270.358495 Z"/>
        <path fill="#FBD099" d="M361.799173,430.374289 C361.799173,440.863603 364.118456,532.580408 363.235703,551.042702 C348.524983,559.610353 324.093016,571.333056 306.717588,577.53304 L306.60793,428.193833 L361.799173,430.374289 Z"/>
        <path fill="#B2B2B2" d="M306.60793,416.299559 L366.006398,416.299559 C366.521868,422.79245 366.988505,429.408179 367.400881,436.123348 L306.60793,436.123348 L306.60793,416.299559 Z"/>
        <path fill="#B2B2B2" d="M290.748899,450.533221 L298.062259,360.003247 L329.07489,309.251101 C329.07489,309.251101 317.999741,357.935386 308.031,371.417188 C307.145873,395.976428 307.588436,463.569971 307.588436,463.569971 C307.588436,463.569971 300.938921,467.054398 290.748899,450.533221"/>
      </g>
    </g>
  </g>
</svg>
