<svg width="788" height="559" viewBox="0 0 788 559" fill="none" xmlns="http://www.w3.org/2000/svg">
<g id="undraw_metrics_re_6g90 1" clip-path="url(#clip0_108_4)" filter="url(#filter0_d_108_4)">
<path id="Vector" d="M56.2837 550.241L55.3325 548.482C68.086 541.584 83.9583 533.001 92.2486 518.915C100.421 505.028 100.604 486.172 92.7271 469.704C86.0235 455.688 73.7092 443.131 57.116 433.391C53.843 431.469 50.4072 429.648 47.0845 427.887C39.053 423.631 30.7481 419.229 23.9002 412.984C14.4685 404.383 7.33228 389.95 12.6512 377.093C14.4004 372.99 17.2652 369.459 20.9202 366.902C24.5753 364.344 28.8741 362.863 33.3286 362.626L33.4415 364.623C29.3606 364.84 25.4221 366.196 22.0729 368.537C18.7237 370.879 16.098 374.112 14.4937 377.871C9.55106 389.818 16.3323 403.376 25.2478 411.507C31.9085 417.581 40.0997 421.922 48.021 426.12C51.3626 427.891 54.8182 429.723 58.1287 431.666C75.0672 441.609 87.6551 454.464 94.5313 468.84C102.692 485.901 102.478 505.477 93.9722 519.929C85.3994 534.495 69.2556 543.226 56.2837 550.241Z" fill="#F1F1F1"/>
<path id="Vector_2" d="M46.0044 373.167C55.6694 373.167 63.5044 369.362 63.5044 364.667C63.5044 359.973 55.6694 356.167 46.0044 356.167C36.3394 356.167 28.5044 359.973 28.5044 364.667C28.5044 369.362 36.3394 373.167 46.0044 373.167Z" fill="#F1F1F1"/>
<path id="Vector_3" d="M60.0044 429.167C69.6694 429.167 77.5044 425.362 77.5044 420.667C77.5044 415.973 69.6694 412.167 60.0044 412.167C50.3394 412.167 42.5044 415.973 42.5044 420.667C42.5044 425.362 50.3394 429.167 60.0044 429.167Z" fill="#F1F1F1"/>
<path id="Vector_4" d="M28.0044 438.167C37.6694 438.167 45.5044 434.362 45.5044 429.667C45.5044 424.973 37.6694 421.167 28.0044 421.167C18.3394 421.167 10.5044 424.973 10.5044 429.667C10.5044 434.362 18.3394 438.167 28.0044 438.167Z" fill="#F1F1F1"/>
<path id="Vector_5" d="M78.0044 485.167C87.6694 485.167 95.5044 481.362 95.5044 476.667C95.5044 471.973 87.6694 468.167 78.0044 468.167C68.3394 468.167 60.5044 471.973 60.5044 476.667C60.5044 481.362 68.3394 485.167 78.0044 485.167Z" fill="#F1F1F1"/>
<path id="Vector_6" d="M113.004 485.167C122.669 485.167 130.504 481.362 130.504 476.667C130.504 471.973 122.669 468.167 113.004 468.167C103.339 468.167 95.5044 471.973 95.5044 476.667C95.5044 481.362 103.339 485.167 113.004 485.167Z" fill="#F1F1F1"/>
<path id="Vector_7" d="M757.671 464H472.838C466.087 463.992 459.614 461.307 454.841 456.533C450.067 451.76 447.382 445.287 447.374 438.536V25.4639C447.382 18.7128 450.067 12.2404 454.841 7.46661C459.614 2.69287 466.087 0.00762002 472.838 0H757.671C764.422 0.00762267 770.895 2.69287 775.668 7.46661C780.442 12.2404 783.127 18.7128 783.135 25.4639V438.536C783.127 445.287 780.442 451.76 775.668 456.533C770.895 461.307 764.422 463.992 757.671 464Z" fill="#E6E6E6"/>
<path id="Vector_8" d="M758.173 447.753H472.337C470.255 447.751 468.26 446.923 466.789 445.452C465.317 443.98 464.489 441.985 464.487 439.904V24.096C464.489 22.0149 465.317 20.0197 466.789 18.5482C468.26 17.0766 470.255 16.2488 472.337 16.2465H758.173C760.254 16.2488 762.249 17.0766 763.72 18.5482C765.192 20.0197 766.02 22.0149 766.022 24.096V439.904C766.02 441.985 765.192 443.98 763.72 445.452C762.249 446.923 760.254 447.751 758.173 447.753Z" fill="white"/>
<path id="Vector_9" d="M614.171 9.96451C615.368 9.96451 616.338 8.99467 616.338 7.79831C616.338 6.60195 615.368 5.63211 614.171 5.63211C612.975 5.63211 612.005 6.60195 612.005 7.79831C612.005 8.99467 612.975 9.96451 614.171 9.96451Z" fill="white"/>
<path id="Vector_10" d="M730.465 290.05H500.044C499.852 290.05 499.669 289.974 499.534 289.839C499.399 289.703 499.323 289.52 499.323 289.329V178.888C499.323 178.696 499.398 178.513 499.534 178.378C499.669 178.242 499.852 178.166 500.044 178.166C500.235 178.166 500.418 178.242 500.554 178.378C500.689 178.513 500.765 178.696 500.765 178.888V288.608H730.465C730.656 288.608 730.839 288.685 730.973 288.82C731.108 288.955 731.184 289.138 731.184 289.329C731.184 289.519 731.108 289.702 730.973 289.838C730.839 289.973 730.656 290.049 730.465 290.05Z" fill="#3F3D56"/>
<path id="Vector_11" d="M549.275 282.117H528.317C527.75 282.117 527.205 281.891 526.804 281.49C526.403 281.089 526.177 280.544 526.176 279.977V251.087C526.177 250.519 526.403 249.975 526.804 249.574C527.205 249.172 527.75 248.947 528.317 248.946H549.275C549.842 248.947 550.386 249.172 550.788 249.574C551.189 249.975 551.415 250.519 551.415 251.087V279.977C551.415 280.544 551.189 281.089 550.788 281.49C550.386 281.891 549.842 282.117 549.275 282.117Z" fill="#6C63FF"/>
<path id="Vector_12" d="M587.494 282.117H566.536C565.969 282.117 565.425 281.891 565.023 281.49C564.622 281.089 564.396 280.544 564.396 279.977V223.684C564.396 223.117 564.622 222.573 565.023 222.171C565.425 221.77 565.969 221.544 566.536 221.544H587.494C588.061 221.544 588.605 221.77 589.007 222.171C589.408 222.573 589.634 223.117 589.635 223.684V279.977C589.634 280.544 589.408 281.089 589.007 281.49C588.605 281.891 588.061 282.117 587.494 282.117Z" fill="#6C63FF"/>
<path id="Vector_13" d="M625.713 282.117H604.755C604.188 282.117 603.643 281.891 603.242 281.49C602.841 281.089 602.615 280.544 602.615 279.977V251.087C602.615 250.519 602.841 249.975 603.242 249.574C603.643 249.172 604.188 248.947 604.755 248.946H625.713C626.28 248.947 626.824 249.172 627.226 249.574C627.627 249.975 627.853 250.519 627.853 251.087V279.977C627.853 280.544 627.627 281.089 627.226 281.49C626.824 281.891 626.28 282.117 625.713 282.117Z" fill="#6C63FF"/>
<path id="Vector_14" d="M663.932 282.117H642.974C642.42 282.129 641.883 281.921 641.482 281.538C641.08 281.155 640.847 280.629 640.834 280.074V212.771C640.847 212.216 641.08 211.69 641.482 211.307C641.883 210.924 642.42 210.715 642.974 210.727H663.932C664.487 210.715 665.023 210.924 665.424 211.307C665.826 211.69 666.059 212.216 666.073 212.771V280.074C666.059 280.629 665.826 281.155 665.424 281.538C665.023 281.921 664.487 282.129 663.932 282.117Z" fill="#6C63FF"/>
<path id="Vector_15" d="M702.151 282.117H681.193C680.626 282.117 680.082 281.891 679.68 281.49C679.279 281.089 679.053 280.545 679.053 279.977V193.397C679.053 192.83 679.279 192.286 679.68 191.885C680.082 191.483 680.626 191.258 681.193 191.257H702.151C702.719 191.258 703.263 191.483 703.664 191.885C704.065 192.286 704.291 192.83 704.292 193.397V279.977C704.291 280.545 704.065 281.089 703.664 281.49C703.263 281.891 702.719 282.117 702.151 282.117Z" fill="#6C63FF"/>
<path id="Vector_16" d="M538.796 240.293C541.186 240.293 543.123 238.356 543.123 235.966C543.123 233.577 541.186 231.639 538.796 231.639C536.406 231.639 534.469 233.577 534.469 235.966C534.469 238.356 536.406 240.293 538.796 240.293Z" fill="#3F3D56"/>
<path id="Vector_17" d="M577.015 212.169C579.405 212.169 581.342 210.232 581.342 207.843C581.342 205.453 579.405 203.516 577.015 203.516C574.625 203.516 572.688 205.453 572.688 207.843C572.688 210.232 574.625 212.169 577.015 212.169Z" fill="#3F3D56"/>
<path id="Vector_18" d="M615.234 240.293C617.624 240.293 619.561 238.356 619.561 235.966C619.561 233.577 617.624 231.639 615.234 231.639C612.844 231.639 610.907 233.577 610.907 235.966C610.907 238.356 612.844 240.293 615.234 240.293Z" fill="#3F3D56"/>
<path id="Vector_19" d="M653.453 198.468C655.843 198.468 657.78 196.531 657.78 194.142C657.78 191.752 655.843 189.815 653.453 189.815C651.064 189.815 649.126 191.752 649.126 194.142C649.126 196.531 651.064 198.468 653.453 198.468Z" fill="#3F3D56"/>
<path id="Vector_20" d="M691.672 182.604C694.062 182.604 695.999 180.667 695.999 178.277C695.999 175.887 694.062 173.95 691.672 173.95C689.283 173.95 687.345 175.887 687.345 178.277C687.345 180.667 689.283 182.604 691.672 182.604Z" fill="#3F3D56"/>
<path id="Vector_21" d="M615.325 236.935L577.015 208.241L539.228 236.543L538.363 235.389L577.015 206.438L615.143 234.997L653.031 193.534L653.184 193.472L691.403 178.073L691.942 179.411L653.875 194.749L615.325 236.935Z" fill="#3F3D56"/>
<path id="Vector_22" d="M278.628 224.485C277.166 224.484 275.721 224.805 274.396 225.424C273.071 226.043 271.899 226.946 270.962 228.069L226.152 226.668L224.399 219.114L201.209 230.43L204.209 251.119L272.499 242.375C273.756 243.352 275.227 244.014 276.792 244.307C278.356 244.6 279.967 244.515 281.492 244.06C283.016 243.605 284.41 242.792 285.558 241.689C286.705 240.587 287.573 239.226 288.089 237.721C288.604 236.216 288.753 234.609 288.523 233.035C288.292 231.46 287.69 229.963 286.764 228.669C285.839 227.374 284.618 226.319 283.203 225.592C281.788 224.864 280.219 224.485 278.628 224.485Z" fill="#9F616A"/>
<path id="Vector_23" d="M195.627 537.085H207.887L213.72 489.797L195.625 489.798L195.627 537.085Z" fill="#9F616A"/>
<path id="Vector_24" d="M192.5 533.083L216.644 533.082H216.645C220.726 533.082 224.639 534.703 227.525 537.588C230.41 540.474 232.031 544.387 232.032 548.468V548.968L192.501 548.969L192.5 533.083Z" fill="#2F2E41"/>
<path id="Vector_25" d="M149.367 527.336L161.145 530.74L179.877 486.93L162.494 481.907L149.367 527.336Z" fill="#9F616A"/>
<path id="Vector_26" d="M147.474 522.623L170.669 529.325C174.589 530.458 177.899 533.102 179.87 536.676C181.841 540.249 182.312 544.458 181.179 548.379L181.04 548.859L143.063 537.885L147.474 522.623Z" fill="#2F2E41"/>
<path id="Vector_27" d="M180.572 331.748C180.572 331.748 176.211 343.914 183.09 360.514L188.399 428.882L189.969 526.114H212.32L225.846 426.992L233.969 337.114L180.572 331.748Z" fill="#2F2E41"/>
<path id="Vector_28" d="M168.001 331.748C168.001 331.748 163.64 343.914 170.519 360.514L175.828 428.882L149.399 521.485H171.749L213.275 426.992L221.399 337.114L168.001 331.748Z" fill="#2F2E41"/>
<path id="Vector_29" d="M233.567 174.938C247.132 174.938 258.128 163.941 258.128 150.377C258.128 136.812 247.132 125.816 233.567 125.816C220.002 125.816 209.006 136.812 209.006 150.377C209.006 163.941 220.002 174.938 233.567 174.938Z" fill="#9F616A"/>
<path id="Vector_30" d="M236.852 210.121L231.875 186.995L206.531 172.605L201.391 179.8C201.391 179.8 165.127 189.329 169.513 230.972C173.899 272.614 171.899 292.614 171.899 292.614L161.899 338.614C161.899 338.614 164.977 339.143 235.628 351.485L238.628 251.485L236.852 210.121Z" fill="#CBCBCB"/>
<path id="Vector_31" opacity="0.1" d="M212.266 435.17L189.251 481.659V494.985L212.266 435.17Z" fill="black"/>
<path id="Vector_32" d="M207.085 158.145C209.427 164.417 218.288 165.286 221.414 159.366C221.657 158.906 221.855 158.425 222.005 157.927C222.861 155.083 222.323 151.951 223.904 149.232C224.289 148.552 224.841 147.981 225.509 147.574C230.765 144.474 235.939 154.311 240.826 151.559C243.823 149.871 243.182 144.971 245.849 142.799C249.369 139.932 254.454 144.202 258.967 143.714C263.989 143.172 266.365 136.81 265.274 131.879C263.942 125.864 259.237 120.983 253.716 118.252C248.194 115.521 241.921 114.696 235.763 114.543C228.766 114.369 221.445 115.112 215.529 118.852C208.335 123.399 204.282 131.866 203.384 140.33C202.839 145.478 205.173 153.024 207.085 158.145Z" fill="#2F2E41"/>
<path id="Vector_33" d="M327.44 326.732C327.476 326.732 327.512 326.732 327.549 326.73C346.053 325.762 363.494 317.782 376.325 304.413C389.156 291.044 396.414 273.29 396.621 254.761C396.829 236.233 389.972 218.32 377.444 204.667C364.916 191.014 347.658 182.645 329.179 181.263C328.951 181.245 328.721 181.274 328.505 181.349C328.288 181.424 328.089 181.543 327.921 181.699C327.753 181.852 327.619 182.038 327.526 182.245C327.434 182.453 327.385 182.677 327.383 182.904L325.79 325.049C325.786 325.491 325.957 325.916 326.267 326.232C326.576 326.547 326.998 326.727 327.44 326.732Z" fill="#3F3D56"/>
<path id="Vector_34" d="M270.279 204.768C270.847 204.774 271.389 205.006 271.786 205.411L320.721 255.455C320.917 255.655 321.073 255.893 321.177 256.153C321.282 256.414 321.333 256.692 321.33 256.973L320.567 324.99C320.565 325.282 320.502 325.57 320.383 325.837C320.264 326.103 320.092 326.342 319.876 326.539C319.659 326.738 319.404 326.89 319.127 326.987C318.849 327.083 318.554 327.121 318.261 327.099C304.655 326.081 291.603 321.289 280.571 313.261C269.539 305.233 260.964 294.288 255.81 281.655C250.656 269.022 249.127 255.202 251.395 241.748C253.663 228.294 259.638 215.739 268.649 205.493C268.844 205.273 269.082 205.094 269.349 204.97C269.616 204.845 269.906 204.776 270.2 204.768C270.226 204.767 270.253 204.767 270.279 204.768Z" fill="#E6E6E6"/>
<path id="Vector_35" d="M320.039 180.682C320.585 180.688 321.109 180.902 321.503 181.28C321.715 181.482 321.883 181.725 321.996 181.994C322.109 182.264 322.165 182.554 322.16 182.846L321.473 244.215C321.468 244.637 321.338 245.049 321.099 245.398C320.86 245.746 320.524 246.017 320.131 246.174C319.739 246.331 319.309 246.369 318.896 246.282C318.482 246.195 318.104 245.987 317.808 245.685L275.107 202.015C274.91 201.814 274.755 201.576 274.651 201.315C274.546 201.054 274.494 200.775 274.497 200.494C274.501 200.212 274.559 199.935 274.67 199.676C274.781 199.418 274.941 199.184 275.143 198.987C275.168 198.962 275.195 198.937 275.222 198.914C287.641 187.982 303.385 181.559 319.906 180.684C319.95 180.682 319.995 180.681 320.039 180.682Z" fill="#6C63FF"/>
<path id="Vector_36" d="M253.628 252.485C252.166 252.484 250.721 252.805 249.396 253.424C248.071 254.043 246.899 254.946 245.962 256.069L201.152 254.668L199.399 247.114L176.209 258.43L179.209 279.119L247.499 270.375C248.756 271.352 250.227 272.014 251.792 272.307C253.356 272.6 254.967 272.515 256.492 272.06C258.016 271.605 259.41 270.792 260.558 269.689C261.705 268.587 262.573 267.226 263.089 265.721C263.604 264.216 263.753 262.609 263.523 261.035C263.292 259.46 262.69 257.963 261.764 256.669C260.839 255.374 259.618 254.319 258.203 253.592C256.788 252.864 255.219 252.485 253.628 252.485Z" fill="#9F616A"/>
<path id="Vector_37" d="M172.431 266.951L171.185 205.318C171.142 203.162 171.526 201.018 172.316 199.01C173.106 197.003 174.287 195.172 175.789 193.624C177.291 192.075 179.085 190.84 181.067 189.99C183.05 189.139 185.181 188.69 187.338 188.668C189.495 188.646 191.635 189.052 193.635 189.862C195.634 190.673 197.453 191.872 198.986 193.389C200.519 194.907 201.736 196.713 202.566 198.704C203.397 200.695 203.825 202.831 203.825 204.988V250.031L172.431 266.951Z" fill="#CBCBCB"/>
<path id="Vector_38" d="M386 550H5C4.73478 550 4.48043 549.895 4.29289 549.707C4.10536 549.52 4 549.265 4 549C4 548.735 4.10536 548.48 4.29289 548.293C4.48043 548.105 4.73478 548 5 548H386C386.265 548 386.52 548.105 386.707 548.293C386.895 548.48 387 548.735 387 549C387 549.265 386.895 549.52 386.707 549.707C386.52 549.895 386.265 550 386 550Z" fill="#CBCBCB"/>
</g>
<defs>
<filter id="filter0_d_108_4" x="0" y="0" width="787.135" height="558.241" filterUnits="userSpaceOnUse" color-interpolation-filters="sRGB">
<feFlood flood-opacity="0" result="BackgroundImageFix"/>
<feColorMatrix in="SourceAlpha" type="matrix" values="0 0 0 0 0 0 0 0 0 0 0 0 0 0 0 0 0 0 127 0" result="hardAlpha"/>
<feOffset dy="4"/>
<feGaussianBlur stdDeviation="2"/>
<feComposite in2="hardAlpha" operator="out"/>
<feColorMatrix type="matrix" values="0 0 0 0 0 0 0 0 0 0 0 0 0 0 0 0 0 0 0.25 0"/>
<feBlend mode="normal" in2="BackgroundImageFix" result="effect1_dropShadow_108_4"/>
<feBlend mode="normal" in="SourceGraphic" in2="effect1_dropShadow_108_4" result="shape"/>
</filter>
<clipPath id="clip0_108_4">
<rect width="779.135" height="550.241" fill="white" transform="translate(4)"/>
</clipPath>
</defs>
</svg>
